<svg width="27" height="29" viewBox="0 0 27 29" fill="none" xmlns="http://www.w3.org/2000/svg">
<path fill-rule="evenodd" clip-rule="evenodd" d="M7 1C7 0.447715 6.55228 0 6 0C5.44772 0 5 0.447715 5 1V2H3C1.34315 2 0 3.34315 0 5V9V19C0 20.6569 1.34315 22 3 22H11V20H3C2.44771 20 2 19.5523 2 19V10H18V11H20V9V5C20 3.34315 18.6569 2 17 2H15V1C15 0.447715 14.5523 0 14 0C13.4477 0 13 0.447715 13 1V2H7V1ZM11 12.858C10.9311 12.373 10.5141 12 10.01 12H10C9.44771 12 9 12.4477 9 13C9 13.5523 9.44771 14 10 14H10.01C10.5141 14 10.9311 13.627 11 13.142V12.858ZM11 16.858C10.9311 16.373 10.5141 16 10.01 16H10C9.44771 16 9 16.4477 9 17C9 17.5523 9.44771 18 10 18H10.01C10.5141 18 10.9311 17.627 11 17.142V16.858ZM3 4H5V5C5 5.55228 5.44772 6 6 6C6.55228 6 7 5.55228 7 5V4H13V5C13 5.55228 13.4477 6 14 6C14.5523 6 15 5.55228 15 5V4H17C17.5523 4 18 4.44771 18 5V8H2V5C2 4.44772 2.44772 4 3 4ZM6 12C5.44772 12 5 12.4477 5 13C5 13.5523 5.44772 14 6 14H6.01C6.56228 14 7.01 13.5523 7.01 13C7.01 12.4477 6.56228 12 6.01 12H6ZM6 16C5.44772 16 5 16.4477 5 17C5 17.5523 5.44772 18 6 18H6.01C6.56228 18 7.01 17.5523 7.01 17C7.01 16.4477 6.56228 16 6.01 16H6Z" fill="black"/>
<circle cx="11" cy="21" r="1" fill="black"/>
<circle cx="19" cy="11" r="1" fill="black"/>
<path d="M17.24 11.8C20.22 11.8 22.08 13.46 22.08 16.1C22.08 17.76 20.94 19.02 19.68 19.38C21.08 19.6 21.68 20.32 21.82 21.82L22.22 26H20.44L20.08 22C19.96 20.72 19.12 20.3 17.06 20.3H13.6V26H11.84V11.8H17.24ZM13.6 18.58H17.24C19.16 18.58 20.24 17.68 20.24 16.06C20.24 14.44 19.16 13.52 17.24 13.52H13.6V18.58Z" fill="#BE4BDB"/>
</svg>
